<svg width="142" height="233" viewBox="0 0 142 233" fill="none" xmlns="http://www.w3.org/2000/svg">
<rect x="25.5" y="110.875" width="90" height="90" rx="45" fill="#FFFFF8"/>
<path d="M70.374 150.001C68.5895 149.972 66.8465 150.541 65.4225 151.617C63.9985 152.693 62.9751 154.214 62.5152 155.939C62.0554 157.663 62.1854 159.492 62.8846 161.134C63.5838 162.776 64.8121 164.137 66.374 165.001" stroke="#8E1C21" stroke-width="3" stroke-linecap="round" stroke-linejoin="round"/>
<path d="M70.375 138V142" stroke="#8E1C21" stroke-width="3" stroke-linecap="round" stroke-linejoin="round"/>
<path d="M59.5754 168.8L56.7754 171.6" stroke="#8E1C21" stroke-width="3" stroke-linecap="round" stroke-linejoin="round"/>
<path d="M86.374 139.999V161.079C87.8992 161.96 89.0911 163.319 89.7651 164.946C90.439 166.573 90.5572 168.377 90.1014 170.078C89.6456 171.779 88.6413 173.282 87.2441 174.354C85.847 175.426 84.1351 176.007 82.374 176.007C80.613 176.007 78.9011 175.426 77.5039 174.354C76.1068 173.282 75.1024 171.779 74.6466 170.078C74.1908 168.377 74.3091 166.573 74.983 164.946C75.6569 163.319 76.8489 161.96 78.374 161.079V139.999C78.374 138.938 78.7955 137.921 79.5456 137.171C80.2957 136.42 81.3132 135.999 82.374 135.999C83.4349 135.999 84.4523 136.42 85.2025 137.171C85.9526 137.921 86.374 138.938 86.374 139.999Z" stroke="#8E1C21" stroke-width="3" stroke-linecap="round" stroke-linejoin="round"/>
<path d="M54.374 158.001H50.374" stroke="#8E1C21" stroke-width="3" stroke-linecap="round" stroke-linejoin="round"/>
<path d="M59.0563 146.679L56.2363 143.859" stroke="#8E1C21" stroke-width="3" stroke-linecap="round" stroke-linejoin="round"/>
<path d="M70.5 212.895L62.7238 199.385L78.3122 199.406L70.5 212.895Z" fill="#FFFFF8"/>
<rect x="64.5" y="220.375" width="12" height="12" rx="6" fill="#FFFFF8"/>
</svg>
