<svg xmlns="http://www.w3.org/2000/svg" width="16" height="17" viewBox="0 0 16 17" fill="none">
  <g clip-path="url(#clip0_44_2147)">
    <path d="M7.68663 0.767228C7.67047 0.768786 7.61522 0.774241 7.56334 0.778917C7.01649 0.828786 6.51645 1.00722 6.13887 1.28774C5.6261 1.66877 5.28507 2.22435 5.14901 2.89836C5.10223 3.12979 5.09118 3.25914 5.08693 3.609C5.08438 3.81939 5.08608 3.9464 5.09118 3.96744C5.09628 3.98536 5.10308 4.05549 5.10649 4.12328L5.11244 4.24639L4.99423 4.17159C4.38278 3.78354 3.76198 3.5264 3.23898 3.44381C3.05615 3.41575 2.9609 3.40952 2.74404 3.4142C2.52889 3.41809 2.44555 3.42744 2.27377 3.46329C1.69463 3.58562 1.08659 3.94952 0.680093 4.41704C0.36629 4.77781 0.121371 5.28274 0.0337787 5.74948C0.00401434 5.90766 -0.00363937 6.02456 0.0014631 6.24194C0.00656559 6.46637 0.0235738 6.59259 0.0745983 6.78195C0.236177 7.37883 0.658832 7.88527 1.33576 8.29284C1.54156 8.41673 1.82475 8.55461 2.16917 8.69958C2.22019 8.72061 2.26101 8.73931 2.26016 8.74164C2.26016 8.74397 2.16917 8.78686 2.05861 8.83668C1.2116 9.21929 0.623115 9.68528 0.293154 10.2354C0.16049 10.4567 0.0660945 10.7161 0.0184714 10.9936C-0.00363937 11.1206 -0.00363937 11.5507 0.0184714 11.6987C0.115419 12.3564 0.436024 12.9221 0.984539 13.4029C1.47182 13.8306 2.0365 14.0582 2.67941 14.0863C3.28831 14.1135 3.88104 13.9709 4.47633 13.6561C4.63281 13.5735 4.84881 13.4395 4.98998 13.3397C5.05206 13.2954 5.10479 13.2611 5.10733 13.2634C5.10989 13.2657 5.10649 13.3265 5.09968 13.399C5.09288 13.4847 5.08863 13.6631 5.08863 13.9156C5.08863 14.2444 5.09118 14.3177 5.10393 14.4104C5.19746 15.0618 5.45093 15.5527 5.91353 15.9766C6.32595 16.3553 6.83029 16.5937 7.40173 16.681C7.61263 16.713 7.67472 16.7168 7.99705 16.7168C8.34315 16.7161 8.46478 16.7067 8.7199 16.6584C9.23014 16.561 9.65706 16.3561 9.99974 16.0428C10.4284 15.6517 10.7073 15.1296 10.8162 14.5156C10.8587 14.274 10.8612 14.2312 10.8646 13.7301C10.8672 13.4683 10.8706 13.2532 10.8723 13.2532C10.874 13.2532 10.925 13.2844 10.9845 13.3226C11.3536 13.5587 11.7593 13.7636 12.1088 13.8883C12.5467 14.0449 12.909 14.1042 13.3104 14.0863C13.8504 14.0613 14.3148 13.8969 14.7646 13.5712C14.8845 13.4839 15.1567 13.2314 15.2672 13.1052C15.6661 12.647 15.8897 12.146 15.945 11.5842C15.9595 11.4354 15.9501 11.0793 15.9289 10.9507C15.8395 10.4255 15.6014 9.99382 15.1915 9.61748C14.842 9.29646 14.4253 9.05023 13.7739 8.77981C13.7279 8.76112 13.6914 8.74397 13.6914 8.74164C13.6914 8.73931 13.7824 8.69642 13.8929 8.6466C15.143 8.08168 15.8251 7.34609 15.9399 6.43907C15.9552 6.32144 15.9569 6.03233 15.9441 5.91234C15.8838 5.36066 15.655 4.85963 15.2519 4.39678C14.7689 3.84043 14.2195 3.52952 13.5545 3.43446C13.4099 3.41342 13.0349 3.40563 12.8639 3.41887C12.4668 3.45082 12.1088 3.53965 11.7643 3.69159C11.5194 3.79991 11.3562 3.89731 11.0457 4.12172L10.8714 4.24795L10.8663 3.71107C10.8612 3.14381 10.8604 3.12044 10.8153 2.88979C10.7047 2.31629 10.3926 1.7989 9.92575 1.41475C9.49038 1.05631 9.01157 0.857617 8.40098 0.781254C8.3083 0.769566 7.7674 0.758658 7.68663 0.767228ZM8.20111 1.61968C8.51749 1.6415 8.76158 1.69682 8.99625 1.79968C9.56862 2.05137 9.87645 2.56019 9.9317 3.34563C9.99208 4.21444 9.68937 5.29209 9.02095 6.58637C8.97926 6.66738 8.94607 6.7344 8.94695 6.73518C8.96482 6.74688 9.39428 6.95334 9.40106 6.95334C9.40702 6.95334 9.45802 6.8918 9.51503 6.81701C10.1341 6.00819 10.7541 5.37157 11.3306 4.95391C11.9021 4.53938 12.4302 4.31808 12.9626 4.26977C13.4822 4.22224 13.9371 4.38509 14.3513 4.76613C14.7212 5.10586 14.9339 5.4791 15.0061 5.91312C15.024 6.02534 15.0265 6.28871 15.0096 6.39624C14.8922 7.15052 14.2391 7.69985 13.023 8.06842C12.3682 8.26632 11.5152 8.41513 10.5695 8.49619C10.4922 8.5024 10.413 8.51022 10.3935 8.51255L10.3569 8.51644V8.74941V8.98243L10.3935 8.98632C10.413 8.98865 10.4751 8.99486 10.5313 8.9988C11.5152 9.07748 12.4651 9.24658 13.1191 9.45775C13.4329 9.55984 13.7858 9.70942 14.0078 9.83486C14.3445 10.0266 14.6226 10.2705 14.7859 10.519C14.8998 10.6943 14.9781 10.8977 15.0096 11.1026C15.0265 11.2109 15.024 11.4743 15.0061 11.5858C14.9517 11.9122 14.8148 12.2115 14.5945 12.4842C14.046 13.1621 13.3623 13.3787 12.5042 13.1473C11.5569 12.8917 10.5202 12.0268 9.48526 10.6289C9.44357 10.572 9.40448 10.5268 9.40023 10.5276C9.3934 10.5292 8.96228 10.7543 8.94695 10.7637C8.94524 10.7652 8.96989 10.8143 9.00137 10.8735C9.65447 12.1242 9.96407 13.1543 9.93683 13.9904C9.91218 14.7914 9.65023 15.3197 9.13232 15.615C8.81937 15.7927 8.37463 15.8839 7.89074 15.8683C7.55397 15.8581 7.26654 15.7989 7.01991 15.6891C6.83283 15.6065 6.61173 15.4514 6.50372 15.3291C6.019 14.7774 5.89654 14.0426 6.12189 13.0312C6.26133 12.4055 6.51816 11.733 6.92469 10.9281C6.96974 10.8385 7.00629 10.7652 7.00458 10.7637C6.99185 10.7551 6.55814 10.5292 6.55135 10.5276C6.54711 10.5268 6.49263 10.593 6.4306 10.6756C5.40583 12.0478 4.38449 12.894 3.44733 13.1473C3.20412 13.2127 3.05274 13.2338 2.81377 13.233C2.61223 13.233 2.54164 13.2252 2.37581 13.1823C2.08497 13.1075 1.83325 12.9626 1.56707 12.7195C1.35957 12.5301 1.24136 12.3798 1.12911 12.1663C1.00495 11.9286 0.941168 11.687 0.928414 11.4026C0.885893 10.4466 1.64276 9.76163 3.19646 9.35333C3.80961 9.19205 4.6277 9.06189 5.41603 8.9988C5.47469 8.99409 5.53507 8.98865 5.5504 8.98632L5.57763 8.98243V8.74941V8.51644L5.5419 8.51255C5.5215 8.51022 5.44067 8.5024 5.36078 8.49619C4.86072 8.45491 4.33006 8.38555 3.87254 8.30139C2.58332 8.06453 1.70399 7.66789 1.26773 7.12633C1.0007 6.79598 0.888445 6.40711 0.938615 5.98323C0.984539 5.58897 1.15547 5.23287 1.46502 4.88924C1.96932 4.32743 2.60968 4.14198 3.3793 4.336C4.17954 4.53782 5.0274 5.15339 5.91948 6.18196C6.10573 6.39701 6.41274 6.77724 6.51733 6.92376C6.53007 6.94246 6.54369 6.95727 6.54711 6.95727C6.55218 6.95727 6.99185 6.74378 7.00458 6.73518C7.00546 6.7344 6.98335 6.68841 6.95529 6.63309C6.48502 5.72533 6.2035 4.96248 6.07938 4.2573C5.93222 3.42199 6.0292 2.79317 6.38126 2.30928C6.50967 2.13162 6.62959 2.01941 6.80647 1.90877C7.17297 1.68046 7.64583 1.58228 8.20111 1.61968Z" fill="#96170F"/>
  </g>
  <defs>
    <clipPath id="clip0_44_2147">
      <rect width="16" height="16" fill="white" transform="translate(0 0.76416)"/>
    </clipPath>
  </defs>
</svg>